<svg xmlns="http://www.w3.org/2000/svg" viewBox="0 0 100 100" preserveAspectRatio="xMidYMid" width="215" height="215" style="shape-rendering: auto; display: block; background: transparent;" xmlns:xlink="http://www.w3.org/1999/xlink"><g><g transform="rotate(0 50 50)">
  <rect fill="#0079c1" height="14" width="5" ry="7" rx="2.5" y="25" x="47.5">
    <animate repeatCount="indefinite" begin="-0.9722222222222222s" dur="1.0416666666666665s" keyTimes="0;1" values="1;0" attributeName="opacity"></animate>
  </rect>
</g><g transform="rotate(24 50 50)">
  <rect fill="#0079c1" height="14" width="5" ry="7" rx="2.5" y="25" x="47.5">
    <animate repeatCount="indefinite" begin="-0.9027777777777778s" dur="1.0416666666666665s" keyTimes="0;1" values="1;0" attributeName="opacity"></animate>
  </rect>
</g><g transform="rotate(48 50 50)">
  <rect fill="#0079c1" height="14" width="5" ry="7" rx="2.5" y="25" x="47.5">
    <animate repeatCount="indefinite" begin="-0.8333333333333333s" dur="1.0416666666666665s" keyTimes="0;1" values="1;0" attributeName="opacity"></animate>
  </rect>
</g><g transform="rotate(72 50 50)">
  <rect fill="#0079c1" height="14" width="5" ry="7" rx="2.5" y="25" x="47.5">
    <animate repeatCount="indefinite" begin="-0.7638888888888888s" dur="1.0416666666666665s" keyTimes="0;1" values="1;0" attributeName="opacity"></animate>
  </rect>
</g><g transform="rotate(96 50 50)">
  <rect fill="#0079c1" height="14" width="5" ry="7" rx="2.5" y="25" x="47.5">
    <animate repeatCount="indefinite" begin="-0.6944444444444444s" dur="1.0416666666666665s" keyTimes="0;1" values="1;0" attributeName="opacity"></animate>
  </rect>
</g><g transform="rotate(120 50 50)">
  <rect fill="#0079c1" height="14" width="5" ry="7" rx="2.5" y="25" x="47.5">
    <animate repeatCount="indefinite" begin="-0.625s" dur="1.0416666666666665s" keyTimes="0;1" values="1;0" attributeName="opacity"></animate>
  </rect>
</g><g transform="rotate(144 50 50)">
  <rect fill="#0079c1" height="14" width="5" ry="7" rx="2.5" y="25" x="47.5">
    <animate repeatCount="indefinite" begin="-0.5555555555555556s" dur="1.0416666666666665s" keyTimes="0;1" values="1;0" attributeName="opacity"></animate>
  </rect>
</g><g transform="rotate(168 50 50)">
  <rect fill="#0079c1" height="14" width="5" ry="7" rx="2.5" y="25" x="47.5">
    <animate repeatCount="indefinite" begin="-0.4861111111111111s" dur="1.0416666666666665s" keyTimes="0;1" values="1;0" attributeName="opacity"></animate>
  </rect>
</g><g transform="rotate(192 50 50)">
  <rect fill="#0079c1" height="14" width="5" ry="7" rx="2.5" y="25" x="47.5">
    <animate repeatCount="indefinite" begin="-0.41666666666666663s" dur="1.0416666666666665s" keyTimes="0;1" values="1;0" attributeName="opacity"></animate>
  </rect>
</g><g transform="rotate(216 50 50)">
  <rect fill="#0079c1" height="14" width="5" ry="7" rx="2.5" y="25" x="47.5">
    <animate repeatCount="indefinite" begin="-0.3472222222222222s" dur="1.0416666666666665s" keyTimes="0;1" values="1;0" attributeName="opacity"></animate>
  </rect>
</g><g transform="rotate(240 50 50)">
  <rect fill="#0079c1" height="14" width="5" ry="7" rx="2.5" y="25" x="47.5">
    <animate repeatCount="indefinite" begin="-0.2777777777777778s" dur="1.0416666666666665s" keyTimes="0;1" values="1;0" attributeName="opacity"></animate>
  </rect>
</g><g transform="rotate(264 50 50)">
  <rect fill="#0079c1" height="14" width="5" ry="7" rx="2.5" y="25" x="47.5">
    <animate repeatCount="indefinite" begin="-0.20833333333333331s" dur="1.0416666666666665s" keyTimes="0;1" values="1;0" attributeName="opacity"></animate>
  </rect>
</g><g transform="rotate(288 50 50)">
  <rect fill="#0079c1" height="14" width="5" ry="7" rx="2.5" y="25" x="47.5">
    <animate repeatCount="indefinite" begin="-0.1388888888888889s" dur="1.0416666666666665s" keyTimes="0;1" values="1;0" attributeName="opacity"></animate>
  </rect>
</g><g transform="rotate(312 50 50)">
  <rect fill="#0079c1" height="14" width="5" ry="7" rx="2.5" y="25" x="47.5">
    <animate repeatCount="indefinite" begin="-0.06944444444444445s" dur="1.0416666666666665s" keyTimes="0;1" values="1;0" attributeName="opacity"></animate>
  </rect>
</g><g transform="rotate(336 50 50)">
  <rect fill="#0079c1" height="14" width="5" ry="7" rx="2.5" y="25" x="47.5">
    <animate repeatCount="indefinite" begin="0s" dur="1.0416666666666665s" keyTimes="0;1" values="1;0" attributeName="opacity"></animate>
  </rect>
</g><g></g></g><!-- [ldio] generated by https://loading.io --></svg>